<?xml version="1.0" standalone="no"?>
<!DOCTYPE svg PUBLIC "-//W3C//DTD SVG 20010904//EN"
 "http://www.w3.org/TR/2001/REC-SVG-20010904/DTD/svg10.dtd">
<svg version="1.0" xmlns="http://www.w3.org/2000/svg"
 width="473.000000pt" height="527.000000pt" viewBox="0 0 473.000000 527.000000"
 preserveAspectRatio="xMidYMid meet">

<g transform="translate(0.000000,527.000000) scale(0.100000,-0.100000)"
fill="#8E0303" stroke="none">
<path d="M1829 5084 c-195 -63 -455 -148 -579 -188 -226 -74 -711 -231 -870
-281 -47 -15 -88 -30 -93 -34 -4 -4 4 -56 17 -117 14 -60 36 -179 50 -264 63
-392 77 -571 76 -985 0 -324 -5 -441 -46 -1057 -15 -224 -16 -288 -6 -395 21
-239 83 -412 223 -622 114 -173 260 -306 485 -442 191 -116 293 -159 669 -286
137 -46 290 -105 339 -129 l89 -45 91 45 c50 25 205 84 344 130 294 100 381
135 552 222 186 94 300 174 421 294 202 202 340 454 383 705 22 125 21 400 -4
731 -24 330 -40 689 -40 883 0 382 56 887 139 1249 14 61 16 84 8 87 -7 2 -91
29 -187 60 -96 31 -283 92 -415 135 -132 43 -379 124 -550 179 -170 54 -395
127 -500 161 -104 34 -202 65 -216 70 -20 6 -106 -18 -380 -106z m191 -644 l0
-290 -60 0 -60 0 0 290 0 290 60 0 60 0 0 -290z m440 258 c6 -18 51 -149 100
-290 l89 -258 -68 0 -69 0 -18 65 -19 65 -105 0 -106 0 -20 -62 -20 -63 -67
-3 c-37 -2 -67 -1 -67 1 0 3 181 528 195 565 3 8 29 12 84 12 l79 0 12 -32z
m-270 -821 l0 -262 -105 -180 -105 -180 105 -3 105 -3 0 -249 0 -250 -63 0
c-35 0 -126 -3 -201 -7 l-138 -6 -19 -43 c-35 -83 -39 -79 96 -76 l120 4 112
-56 c132 -65 120 -38 126 -294 3 -95 7 -176 10 -179 10 -10 57 7 73 26 16 18
18 18 65 0 74 -29 96 -25 121 18 l22 36 58 -64 58 -64 0 -114 0 -114 -27 23
c-16 14 -63 58 -105 99 l-77 75 -86 -41 -85 -41 -80 39 c-44 22 -83 39 -87 39
-4 0 -54 -46 -110 -102 l-103 -103 0 -120 0 -120 63 66 c58 61 70 69 190 118
l127 51 128 -51 c120 -48 130 -55 189 -117 39 -42 66 -63 71 -57 5 6 44 54 86
108 l77 98 36 174 c20 96 35 177 32 179 -2 3 -35 -4 -73 -15 -38 -10 -71 -17
-73 -16 -1 2 28 62 67 134 l69 131 -26 61 -26 61 -79 -56 -79 -55 -88 20 c-49
12 -94 21 -100 21 -6 0 -11 -15 -11 -33 0 -42 -45 -91 -61 -67 -18 29 -99 178
-99 184 0 3 52 31 116 62 l116 56 119 -4 c81 -3 118 -1 116 6 -2 6 -12 34 -22
63 l-18 51 -199 7 -198 8 0 248 0 248 103 3 104 3 -104 174 -103 173 0 271 0
272 93 -155 c51 -85 144 -244 206 -352 62 -109 117 -195 121 -193 5 3 78 92
163 197 85 106 164 204 175 218 l21 25 1 -206 0 -206 -90 -119 c-49 -65 -90
-122 -90 -126 0 -3 41 -10 90 -14 l90 -7 0 -248 c0 -233 -1 -248 -18 -251 -18
-3 -16 -16 24 -203 102 -475 174 -819 174 -834 0 -9 -232 -245 -515 -525
l-516 -509 -377 373 c-207 206 -439 435 -516 510 l-138 137 12 54 c26 122 210
991 210 995 0 2 -9 4 -20 4 -20 0 -20 5 -18 248 l3 247 80 7 c44 4 86 9 93 10
8 2 -24 53 -82 130 l-96 128 0 200 c0 110 3 200 8 199 4 0 86 -99 182 -219
133 -167 177 -217 186 -207 6 6 64 104 129 217 146 254 275 470 281 470 2 0 4
-118 4 -263z m-1080 -2038 c63 -12 116 -23 117 -24 3 -1 -29 -118 -33 -124 -3
-4 -234 170 -234 176 0 2 8 2 18 -1 9 -2 69 -14 132 -27z m2440 17 c0 -10
-230 -167 -238 -162 -9 5 -36 115 -30 121 3 2 224 41 256 44 6 0 12 -1 12 -3z"/>
<path d="M2332 4492 c-18 -54 -32 -101 -32 -105 0 -4 32 -7 71 -7 53 0 70 3
67 13 -3 6 -18 50 -33 97 -15 47 -30 88 -34 92 -4 4 -21 -36 -39 -90z"/>
<path d="M1856 2531 c-3 -4 7 -20 23 -35 27 -26 29 -26 80 -14 61 14 61 30 0
40 -24 4 -56 9 -71 12 -15 3 -29 2 -32 -3z"/>
<path d="M2561 2526 c-35 -6 -66 -16 -68 -22 -2 -6 20 -16 48 -22 47 -11 53
-10 79 10 28 22 34 40 14 44 -5 1 -38 -4 -73 -10z"/>
<path d="M1667 2428 l-25 -63 45 -85 c101 -188 99 -186 144 -199 22 -7 43 -10
45 -8 3 3 43 65 89 138 68 107 85 140 85 171 0 21 -5 38 -11 38 -6 0 -51 -9
-100 -21 l-88 -20 -79 55 -80 56 -25 -62z"/>
<path d="M1376 1853 c-15 -65 -29 -125 -32 -134 -3 -10 148 -166 451 -463
l455 -448 456 448 c365 359 454 452 450 469 -3 11 -17 72 -32 135 l-27 115
-13 -50 c-6 -27 -19 -84 -28 -126 l-17 -76 -217 -214 -217 -214 -3 49 c-3 43
-13 63 -67 140 l-63 91 -111 44 -111 44 -110 -44 -110 -44 -64 -91 c-56 -77
-65 -97 -68 -140 l-3 -49 -217 215 -218 215 -25 120 c-14 65 -27 121 -29 122
-2 2 -15 -50 -30 -114z"/>
</g>
</svg>
